<?xml version="1.0" encoding="UTF-8"?>
<svg width="72px" height="25px" viewBox="0 0 72 25" version="1.1" xmlns="http://www.w3.org/2000/svg" xmlns:xlink="http://www.w3.org/1999/xlink">
    <!-- Generator: Sketch 50.2 (55047) - http://www.bohemiancoding.com/sketch -->
    <title>Group</title>
    <desc>Created with Sketch.</desc>
    <defs></defs>
    <g id="0.Zaglushka" stroke="none" stroke-width="1" fill="none" fill-rule="evenodd">
        <g id="Screen_zaglushka_map" transform="translate(-40.000000, -746.000000)" fill="#DEBFA5">
            <g id="Group" transform="translate(40.000000, 746.000000)">
                <path d="M40.1334694,6.165 L40.8908163,6.165 C41.3806122,6.165 41.7810204,6.21 42.1373469,6.57214286 C42.4042857,6.88867347 42.5380612,7.56704082 42.5380612,7.97418367 C42.5380612,8.47163265 42.5380612,9.10469388 42.359898,9.55683673 C42.0926531,10.2805102 41.647551,10.4161224 40.9352041,10.4161224 L40.1334694,10.4161224 L40.1334694,6.16530612 L40.1334694,6.165 Z M40.4897959,10.0542857 L40.934898,10.0542857 C41.157449,10.0542857 41.38,10.0542857 41.5581633,9.96397959 C42.0923469,9.6927551 42.1367347,8.78816327 42.1367347,8.24540816 C42.1367347,7.70265306 42.1367347,6.84336735 41.602551,6.57183673 C41.38,6.43622449 41.0683673,6.48153061 40.8014286,6.48153061 L40.4897959,6.48153061 L40.4897959,10.0542857 Z" id="Shape"></path>
                <polygon id="Shape" points="43.1163265 10.4161224 43.1163265 6.16530612 45.0308163 6.16530612 45.0308163 6.48183673 43.5170408 6.48183673 43.5170408 8.0194898 44.8970408 8.0194898 44.8970408 8.33602041 43.5173469 8.33602041 43.5173469 10.0545918 45.0755102 10.0545918 45.0755102 10.3714286 43.1163265 10.3714286"></polygon>
                <polygon id="Shape" points="45.342449 6.165 45.7428571 6.165 46.6780612 9.91836735 47.6129592 6.16469388 48.0133673 6.16469388 46.9006122 10.4158163 46.4995918 10.4158163"></polygon>
                <polygon id="Shape" points="48.5031633 10.4161224 48.5031633 6.16530612 50.4176531 6.16530612 50.4176531 6.48183673 48.9038776 6.48183673 48.9038776 8.0194898 50.2838776 8.0194898 50.2838776 8.33602041 48.9038776 8.33602041 48.9038776 10.0545918 50.4620408 10.0545918 50.4620408 10.3714286 48.5031633 10.3714286"></polygon>
                <polygon id="Shape" points="51.0409184 10.4161224 51.0409184 6.16530612 51.3969388 6.16530612 51.3969388 10.099898 52.955102 10.099898 52.955102 10.4164286"></polygon>
                <path d="M53.4892857,8.20010204 C53.4892857,7.34081633 53.6230612,6.07438776 54.7358163,6.07438776 C55.9379592,6.07438776 55.9823469,7.47642857 55.9823469,8.38102041 C55.9823469,9.28561224 55.9379592,10.5067347 54.7358163,10.5067347 C53.4892857,10.5067347 53.4892857,9.05938776 53.4892857,8.20010204 Z M55.5819388,8.29071429 C55.5819388,7.65734694 55.5819388,6.39091837 54.6914286,6.39091837 C53.8456122,6.39091837 53.8456122,7.65734694 53.8456122,8.24540816 C53.8456122,8.87846939 53.8009184,10.1902041 54.7358163,10.1902041 C55.6263265,10.1902041 55.5819388,8.92377551 55.5819388,8.29071429 Z" id="Shape"></path>
                <path d="M56.7393878,10.4161224 L56.7393878,6.16530612 L57.4961224,6.16530612 C58.4310204,6.16530612 58.9208163,6.39122449 58.9208163,7.25081633 C58.9208163,7.65795918 58.8317347,7.97418367 58.5644898,8.15510204 C58.297551,8.38132653 57.852449,8.47193878 57.6742857,8.47193878 L57.1397959,8.47193878 L57.1397959,10.3714286 L56.7387755,10.3714286 L56.7387755,10.4164286 L56.7393878,10.4161224 Z M57.0954082,8.15479592 L57.4070408,8.15479592 C58.0303061,8.15479592 58.520102,8.0644898 58.520102,7.2955102 C58.520102,6.66244898 58.2084694,6.48122449 57.6295918,6.48122449 L57.0954082,6.48122449 L57.0954082,8.15479592 Z" id="Shape"></path>
                <polygon id="Shape" points="59.9447959 10.4161224 59.5884694 10.4161224 59.5884694 6.16530612 60.2117347 6.16530612 61.1913265 9.87397959 62.2153061 6.16530612 62.7938776 6.16530612 62.7938776 10.4164286 62.4378571 10.4164286 62.4378571 6.52683673 61.4138776 10.4161224 61.0131633 10.4161224 59.9891837 6.52683673 59.9891837 10.4161224"></polygon>
                <polygon id="Shape" points="63.5953061 10.4161224 63.5953061 6.16530612 65.5097959 6.16530612 65.5097959 6.48183673 63.9960204 6.48183673 63.9960204 8.0194898 65.3760204 8.0194898 65.3760204 8.33602041 63.9960204 8.33602041 63.9960204 10.0545918 65.5541837 10.0545918 65.5541837 10.3714286 63.5953061 10.3714286"></polygon>
                <polygon id="Shape" points="68.0028571 9.82836735 68.0028571 6.165 68.3588776 6.165 68.3588776 10.4161224 67.9137755 10.4161224 66.3556122 6.79806122 66.3556122 10.4164286 65.9989796 10.4164286 65.9989796 6.16469388 66.4443878 6.16469388"></polygon>
                <polygon id="Shape" points="68.8039796 6.52653061 68.8039796 6.21 71.0744898 6.21 71.0744898 6.52683673 70.1395918 6.52683673 70.1395918 10.4161224 69.7835714 10.4161224 69.7835714 6.52683673"></polygon>
                <polygon id="Shape" points="40.1334694 17.0644898 40.1334694 12.8133673 40.6334694 12.8133673 40.6334694 17.0644898"></polygon>
                <polygon id="Shape" points="44.0512245 16.4767347 44.0512245 12.8133673 44.407551 12.8133673 44.407551 17.0644898 43.9621429 17.0644898 42.4039796 13.4464286 42.4039796 17.0647959 42.0479592 17.0647959 42.0479592 12.8133673 42.4930612 12.8133673"></polygon>
                <polygon id="Shape" points="45.342449 12.8133673 45.7428571 12.8133673 46.6780612 16.5670408 47.6573469 12.8133673 48.0133673 12.8133673 46.9006122 17.0644898 46.4995918 17.0644898"></polygon>
                <polygon id="Shape" points="48.9038776 17.0644898 48.9038776 12.8133673 50.7736735 12.8133673 50.7736735 13.1752041 49.2602041 13.1752041 49.2602041 14.7128571 50.6405102 14.7128571 50.6405102 15.0293878 49.2602041 15.0293878 49.2602041 16.7479592 50.8183673 16.7479592 50.8183673 17.0644898"></polygon>
                <path d="M52.955102,14.7581633 C53.5783673,15.0293878 54.0234694,15.2103061 54.0234694,15.9792857 C54.0234694,16.7029592 53.5336735,17.1547959 52.8216327,17.1547959 C52.064898,17.1547959 51.6641837,16.6123469 51.6641837,15.8433673 L52.0202041,15.8433673 C52.0202041,16.3861224 52.2427551,16.8382653 52.8216327,16.8382653 C53.3114286,16.8382653 53.667449,16.5220408 53.667449,15.9792857 C53.667449,15.3459184 53.2223469,15.2556122 52.732551,15.0293878 C52.1539796,14.8031633 51.7529592,14.5319388 51.7529592,13.8535714 C51.7529592,13.1752041 52.1539796,12.6777551 52.8213265,12.6777551 C53.4892857,12.6777551 53.89,13.129898 53.89,13.8082653 L53.5339796,13.8082653 C53.5339796,13.3561224 53.2667347,12.9939796 52.8216327,12.9939796 C52.3318367,12.9939796 52.1092857,13.3561224 52.1092857,13.8082653 C52.1092857,14.2154082 52.2427551,14.3960204 52.5990816,14.5772449 L52.955102,14.7578571 L52.955102,14.7581633 Z" id="Shape"></path>
                <polygon id="Shape" points="54.824898 13.1752041 54.824898 12.8583673 57.0954082 12.8583673 57.0954082 13.1752041 56.1605102 13.1752041 56.1605102 17.0644898 55.8044898 17.0644898 55.8044898 13.1755102"></polygon>
                <polygon id="Shape" points="58.4310204 17.0644898 58.075 17.0644898 58.075 12.8133673 58.6982653 12.8133673 59.6778571 16.5220408 60.7015306 12.8133673 61.280102 12.8133673 61.280102 17.0644898 60.9240816 17.0644898 60.9240816 13.1755102 59.900102 17.0647959 59.4993878 17.0647959 58.4310204 13.1755102"></polygon>
                <polygon id="Shape" points="62.5713265 17.0644898 62.5713265 12.8133673 64.4411224 12.8133673 64.4411224 13.1752041 62.9276531 13.1752041 62.9276531 14.7128571 64.3076531 14.7128571 64.3076531 15.0293878 62.9276531 15.0293878 62.9276531 16.7479592 64.4858163 16.7479592 64.4858163 17.0644898"></polygon>
                <polygon id="Shape" points="67.4683673 16.4767347 67.4683673 12.8133673 67.8246939 12.8133673 67.8246939 17.0644898 67.3795918 17.0644898 65.8214286 13.4464286 65.8214286 17.0647959 65.465102 17.0647959 65.465102 12.8133673 65.9102041 12.8133673"></polygon>
                <polygon id="Shape" points="68.8039796 13.1752041 68.8039796 12.8583673 71.0744898 12.8583673 71.0744898 13.1752041 70.1395918 13.1752041 70.1395918 17.0644898 69.7835714 17.0644898 69.7835714 13.1755102"></polygon>
                <polygon id="Shape" points="40.4897959 23.7128571 40.1334694 23.7128571 40.1334694 19.4617347 40.7567347 19.4617347 41.7363265 23.1704082 42.7603061 19.4617347 43.3388776 19.4617347 43.3388776 23.7128571 42.9828571 23.7128571 42.9828571 19.8235714 41.9588776 23.7128571 41.5581633 23.7128571 40.5341837 19.8235714 40.5341837 23.7128571"></polygon>
                <path d="M45.787551,19.4617347 L46.9006122,23.7128571 L46.5442857,23.7128571 L46.2326531,22.4014286 L44.9417347,22.4014286 L44.5854082,23.7128571 L44.2293878,23.7128571 L45.342449,19.4617347 L45.787551,19.4617347 Z M46.0991837,22.084898 L45.565,19.9591837 L45.0308163,22.084898 L46.0991837,22.084898 Z" id="Shape"></path>
                <polygon id="Shape" points="49.3489796 23.125102 49.3489796 19.5067347 49.7053061 19.5067347 49.7053061 23.7581633 49.259898 23.7581633 47.7017347 20.1397959 47.7017347 23.7581633 47.3457143 23.7581633 47.3457143 19.5067347 47.7908163 19.5067347"></polygon>
                <path d="M51.7532653,19.4617347 L52.8660204,23.7128571 L52.51,23.7128571 L52.1983673,22.4014286 L50.9518367,22.4014286 L50.5955102,23.7128571 L50.2397959,23.7128571 L51.3528571,19.4617347 L51.7535714,19.4617347 L51.7532653,19.4617347 Z M52.1092857,22.084898 L51.575102,19.9591837 L51.0409184,22.084898 L52.1092857,22.084898 Z" id="Shape"></path>
                <path d="M54.4244898,21.9489796 L54.4244898,21.632449 L55.6707143,21.632449 L55.6707143,23.7581633 L55.4037755,23.7581633 L55.3590816,23.3060204 C55.1365306,23.6678571 54.8692857,23.8487755 54.4241837,23.8487755 C53.2670408,23.8487755 53.2223469,22.4014286 53.2223469,21.5421429 C53.2223469,20.637551 53.2667347,19.4164286 54.4688776,19.4164286 C55.1812245,19.4164286 55.5819388,20.0041837 55.5819388,20.6828571 L55.2256122,20.6828571 C55.1812245,20.2304082 55.0030612,19.7329592 54.4688776,19.7329592 C53.5339796,19.7329592 53.5783673,21.0446939 53.5783673,21.632449 C53.5783673,22.2205102 53.5783673,23.5322449 54.4241837,23.5322449 C55.2256122,23.5322449 55.2703061,22.5823469 55.2703061,21.9942857 L54.4241837,21.9942857 L54.4241837,21.9492857 L54.4244898,21.9489796 Z" id="Shape"></path>
                <polygon id="Shape" points="56.5168367 23.7128571 56.5168367 19.4617347 58.4310204 19.4617347 58.4310204 19.7782653 56.9172449 19.7782653 56.9172449 21.3159184 58.297551 21.3159184 58.297551 21.632449 56.9172449 21.632449 56.9172449 23.3513265 58.4754082 23.3513265 58.4754082 23.6678571 56.5168367 23.6678571"></polygon>
                <polygon id="Shape" points="59.455 23.7128571 59.0989796 23.7128571 59.0989796 19.4617347 59.7222449 19.4617347 60.7015306 23.1704082 61.7255102 19.4617347 62.3040816 19.4617347 62.3040816 23.7128571 61.9480612 23.7128571 61.9480612 19.8235714 60.9240816 23.7128571 60.4789796 23.7128571 59.455 19.8235714"></polygon>
                <polygon id="Shape" points="63.1055102 23.7128571 63.1055102 19.4617347 65.02 19.4617347 65.02 19.7782653 63.5062245 19.7782653 63.5062245 21.3159184 64.8862245 21.3159184 64.8862245 21.632449 63.5062245 21.632449 63.5062245 23.3513265 65.0643878 23.3513265 65.0643878 23.6678571 63.1055102 23.6678571"></polygon>
                <polygon id="Shape" points="67.78 23.125102 67.78 19.5067347 68.1363265 19.5067347 68.1363265 23.7581633 67.6912245 23.7581633 66.1330612 20.1397959 66.1330612 23.7581633 65.7767347 23.7581633 65.7767347 19.5067347 66.2218367 19.5067347"></polygon>
                <polygon id="Shape" points="68.8039796 19.8235714 68.8039796 19.5067347 71.0744898 19.5067347 71.0744898 19.8235714 70.1395918 19.8235714 70.1395918 23.7581633 69.7835714 23.7581633 69.7835714 19.8235714"></polygon>
                <path d="M5.10390881,7.10170982 C6.52376587,7.10170982 8.7218925,7.10170982 10.3705632,8.61400155 C10.2790378,8.47641028 10.1417496,8.33881901 10.0502241,8.24729354 C8.49307883,6.68954214 6.75288261,6.73500181 5.19573735,6.73500181 L3.73011755,6.73500181 C2.99730765,6.73500181 2.35632629,7.33082657 2.35632629,8.10970227 L2.35632629,22.9089467 L1.57745059,22.9089467 C1.57745059,22.9089467 0.387013334,23.0923007 0.387013334,21.7179033 L0.387013334,7.78875699 C0.387013334,7.78875699 0.341250598,5.7727721 2.26480082,4.90206787 L2.17297228,4.94813367 C1.39439965,5.13118461 0.0206083842,6.09371738 0.0206083842,8.06363647 L0.0206083842,23.0919976 C0.0206083842,23.8251106 0.616130076,24.466395 1.39439965,24.466395 L2.58544303,24.466395 C3.31794986,24.466395 3.95923429,23.8708733 3.95923429,23.0919976 L3.95923429,8.24729354 C3.91347156,8.24729354 3.68435481,7.10170982 5.10390881,7.10170982 Z" id="Shape"></path>
                <path d="M26.9490992,6.68954214 L25.7583589,6.68954214 C25.025549,6.68954214 24.4303303,7.2393011 24.3845676,7.97241406 L22.4152546,17.9147472 C22.4152546,17.9147472 22.5067801,18.4187434 22.9647105,18.4187434 C23.5144695,18.4187434 23.605995,17.3192255 23.605995,17.3192255 L25.4834794,7.88058552 C25.4834794,7.88058552 25.4834794,7.28506383 26.3535775,7.28506383 C27.2239787,7.28506383 27.8191973,7.3765893 28.1398395,7.46841784 C27.9107228,7.01018435 27.4527923,6.68954214 26.9487961,6.68954214 L26.9490992,6.68954214 Z" id="Shape"></path>
                <path d="M25.4834794,7.88058552 L23.605995,17.3192255 C23.605995,17.3192255 23.4684037,18.4187434 22.9647105,18.4187434 C22.5070832,18.4187434 22.4152546,17.9147472 22.4152546,17.9147472 L20.4459417,7.97241406 C20.4459417,7.83482279 20.400179,7.74329732 20.400179,7.65146878 C20.1252995,7.55994331 19.6216063,7.33082657 18.8887964,7.33082657 C17.8814101,7.33082657 18.1102238,8.24729354 18.1102238,8.24729354 L18.9345592,8.24729354 L20.9038721,18.3272179 C20.9496348,19.0603309 21.5451565,19.6100899 22.2779664,19.6100899 L22.5525428,19.6100899 C23.2853527,19.6100899 23.8805714,19.0603309 23.9266372,18.3272179 L25.8956471,8.24729354 L25.6210706,7.51387751 C25.4834794,7.69753458 25.4834794,7.88058552 25.4834794,7.88058552 Z" id="Shape"></path>
                <path d="M29.6051562,22.9547094 L29.6051562,8.24699047 C29.6051562,8.24699047 29.6051562,7.01018435 28.1856022,6.4604254 C28.5062444,6.5977136 29.1014631,7.05594709 29.1014631,8.10970227 L29.1014631,22.9089467 L29.5593935,23.3211144 C29.6051562,23.2295889 29.6051562,23.0923007 29.6051562,22.9547094 Z" id="Shape"></path>
                <path d="M26.7199824,23.0923007 C26.7199824,23.8254136 27.3155041,24.4666981 28.0940768,24.4666981 L28.5062444,24.4666981 C28.7808209,24.4212384 29.4221053,24.2375813 29.6051562,23.3211144 L29.1475289,22.9089467 L28.3231935,22.9089467 L28.3231935,8.06393953 C28.3231935,7.83482279 28.2771277,7.65177184 28.1856022,7.46841784 C27.86496,7.4226551 27.2697414,7.28506383 26.3996433,7.28506383 C25.9874756,7.28506383 25.8041216,7.4226551 25.6668334,7.55994331 L25.9414098,8.29305627 L26.7657452,8.29305627 L26.7657452,23.0923007 L26.7202855,23.0923007 L26.7199824,23.0923007 Z" id="Shape"></path>
                <path d="M18.5223915,1.32863465 C20.2628907,1.92445941 28.5977699,5.31484168 28.5977699,5.31484168 C28.5977699,5.31484168 29.7427475,5.6815497 30.3379661,6.5977136 C29.8803388,5.6354839 29.0560034,5.08572494 28.5062444,4.90237093 L16.1412139,0.0915254712 C15.8660314,0 15.5911519,0 15.3168785,0 C15.041999,0 14.7671196,0 14.5380028,0.0915254712 L2.21903808,4.8566082 C0.295487862,5.77337823 0.341250598,7.74329732 0.341250598,7.74329732 L0.341250598,21.6721406 C0.341250598,23.0465379 1.53199092,22.8631839 1.53199092,22.8631839 L1.53199092,8.06393953 C1.53199092,6.78106761 2.44785176,6.41466266 2.58513997,6.36859686 L14.9501705,1.60351413 C16.0036226,1.28287192 16.7821953,0.733112963 18.5223915,1.32863465 Z" id="Shape"></path>
                <path d="M15.7290462,1.60351413 L28.0025513,6.36859686 L28.048011,6.36859686 C28.0940768,6.36859686 28.1398395,6.41466266 28.1856022,6.41466266 C29.651222,6.96442162 29.6051562,8.2015308 29.6051562,8.2015308 L29.6051562,22.9092497 C29.6051562,24.1460559 28.7808209,24.3751726 28.5062444,24.4209353 L29.2848171,24.4209353 C30.0173239,24.4209353 30.6586083,23.8254136 30.6586083,23.0465379 L30.6586083,8.06393953 C30.6586083,7.46841784 30.5213201,7.01018435 30.3379661,6.5977136 C29.7427475,5.6815497 28.5977699,5.31484168 28.5977699,5.31484168 C28.5977699,5.31484168 20.2628907,1.92445941 18.5223915,1.32863465 C16.7821953,0.733112963 16.0039257,1.28317498 14.9504736,1.60351413 C15.0877618,1.60351413 15.22505,1.55805446 15.3165755,1.55805446 C15.4541667,1.55805446 15.5914549,1.55805446 15.7287431,1.60351413 L15.7290462,1.60351413 Z" id="Shape"></path>
                <path d="M10.3708663,8.61369849 C8.72219557,7.10170982 6.52376587,7.10170982 5.10390881,7.10170982 C3.68435481,7.10170982 3.91347156,8.24729354 3.91347156,8.24729354 L5.19573735,8.24729354 C6.61529134,8.24729354 7.8517944,8.24729354 8.95070618,9.30104871 C9.91263282,10.2632784 10.416326,11.8210298 10.416326,14.7077189 C10.416326,20.3432028 10.0502241,21.2596698 9.08829745,22.1758337 C8.21850241,23.0004721 6.84440809,22.8631839 5.88248144,22.8174212 L5.47031376,22.8174212 C5.10390881,22.9089467 4.87509513,23.2295889 4.87509513,23.5962969 C4.87509513,23.9630049 5.14997461,24.2836471 5.51637956,24.3751726 L5.79095597,24.3751726 C6.93593356,24.4209353 9.04283778,24.6042893 10.4623918,23.1380634 C11.6531321,21.8551915 11.9734712,20.8929618 11.9734712,14.7534817 C11.9734712,11.9586211 11.4697781,9.94263621 10.3705632,8.61369849 L10.3708663,8.61369849 Z" id="Shape"></path>
                <path d="M19.1179132,6.68954214 L17.9268698,6.68954214 C17.1943629,6.68954214 16.5533816,7.28506383 16.5533816,8.06393953 L16.5533816,23.8711764 C16.6449071,24.2378844 16.9655493,24.5124608 17.3316512,24.5124608 C17.7438188,24.5124608 18.064461,24.2375813 18.1105268,23.8254136 L18.1105268,8.24729354 C18.1105268,8.24729354 17.8814101,7.33082657 18.8887964,7.33082657 C19.5758436,7.33082657 20.1252995,7.51418057 20.400179,7.65146878 C20.2168249,7.10170982 19.7131318,6.68954214 19.1179132,6.68954214 Z" id="Shape"></path>
                <path d="M14.858645,23.6420596 C14.858645,24.0542273 14.4922401,24.4209353 14.0800724,24.4209353 C13.6679047,24.4209353 13.3018028,24.0542273 13.3018028,23.6420596 L13.3018028,7.46841784 C13.3018028,7.05625015 13.6679047,6.68954214 14.0800724,6.68954214 C14.4922401,6.68954214 14.8589481,7.05625015 14.8589481,7.46841784 L14.8589481,23.6420596 L14.858645,23.6420596 Z" id="Shape"></path>
            </g>
        </g>
    </g>
</svg>