<?xml version="1.0" encoding="UTF-8"?>
<svg width="12px" height="16px" viewBox="0 0 12 16" version="1.1" xmlns="http://www.w3.org/2000/svg" xmlns:xlink="http://www.w3.org/1999/xlink">
    <!-- Generator: Sketch 51.3 (57544) - http://www.bohemiancoding.com/sketch -->
    <title>location</title>
    <desc>Created with Sketch.</desc>
    <defs></defs>
    <g id="0.Zaglushka" stroke="none" stroke-width="1" fill="none" fill-rule="evenodd">
        <g id="Screen_zaglushka" transform="translate(-1390.000000, -36.000000)" fill="#16284A" fill-rule="nonzero">
            <path d="M1395.89029,36 C1392.64254,36 1390,38.6425413 1390,41.8906173 C1390,42.7378418 1390.17341,43.5467496 1390.51515,44.2950712 C1391.98788,47.5177665 1394.81153,50.9202554 1395.64205,51.8861962 C1395.70427,51.9584084 1395.79499,52 1395.89045,52 C1395.98592,52 1396.07663,51.9584084 1396.13886,51.8861962 C1396.96905,50.9204192 1399.7927,47.518094 1401.26592,44.2950712 C1401.60783,43.5467496 1401.78107,42.7378418 1401.78107,41.8906173 C1401.78074,38.6425413 1399.1382,36 1395.89029,36 Z M1395.89029,44.9502211 C1394.20321,44.9502211 1392.83052,43.577534 1392.83052,41.8904536 C1392.83052,40.2032094 1394.20321,38.8305224 1395.89029,38.8305224 C1397.57737,38.8305224 1398.95006,40.2032094 1398.95006,41.8904536 C1398.95022,43.577534 1397.57753,44.9502211 1395.89029,44.9502211 Z" id="location"></path>
        </g>
    </g>
</svg>