<?xml version="1.0" encoding="UTF-8"?>
<svg width="545px" height="180px" viewBox="0 0 545 180" version="1.1" xmlns="http://www.w3.org/2000/svg" xmlns:xlink="http://www.w3.org/1999/xlink">
    <!-- Generator: Sketch 50.2 (55047) - http://www.bohemiancoding.com/sketch -->
    <title>Group</title>
    <desc>Created with Sketch.</desc>
    <defs></defs>
    <g id="Page-1" stroke="none" stroke-width="1" fill="none" fill-rule="evenodd">
        <g id="Artboard-1" fill="#25366F">
            <g id="Group">
                <path d="M349.6779,110.5647 C350.9869,110.5647 352.0649,110.1387 352.9149,109.2887 C353.7649,108.4057 354.1899,107.2947 354.1899,105.9547 C354.1899,104.6137 353.7649,103.5027 352.9149,102.6517 C352.0649,101.7697 350.9869,101.3457 349.6779,101.3457 C348.3709,101.3457 347.2919,101.7697 346.4079,102.6517 C345.5599,103.5027 345.1329,104.6137 345.1329,105.9547 C345.1329,107.2947 345.5599,108.4057 346.4079,109.2887 C347.2919,110.1387 348.3709,110.5647 349.6779,110.5647 Z M354.1899,91.2427 L358.4069,91.2427 L358.4069,114.1277 L354.1899,114.1277 L354.1899,112.1987 C352.9479,113.8007 351.1819,114.5857 348.8939,114.5857 C346.7019,114.5857 344.8069,113.7687 343.2379,112.1007 C341.7019,110.4337 340.9159,108.3737 340.9159,105.9547 C340.9159,103.5347 341.7019,101.5087 343.2379,99.8407 C344.8069,98.1727 346.7019,97.3237 348.8939,97.3237 C351.1819,97.3237 352.9479,98.1077 354.1899,99.7097 L354.1899,91.2427 Z" id="Fill-1"></path>
                <path d="M374.2658,104.4172 C373.7758,102.1952 372.1418,101.1152 370.2128,101.1152 C367.9568,101.1152 366.4198,102.3252 365.9288,104.4172 L374.2658,104.4172 Z M365.9948,107.6872 C366.5508,109.7472 368.0878,110.7612 370.6048,110.7612 C372.2058,110.7612 373.4488,110.2052 374.2658,109.1252 L377.6648,111.0882 C376.0638,113.4092 373.6778,114.5862 370.5398,114.5862 C367.8258,114.5862 365.6678,113.7682 364.0328,112.1342 C362.3988,110.4982 361.5808,108.4382 361.5808,105.9542 C361.5808,103.5022 362.3988,101.4422 363.9998,99.8082 C365.6018,98.1402 367.6948,97.3242 370.2128,97.3242 C372.5978,97.3242 374.5928,98.1402 376.1298,99.8082 C377.6998,101.4752 378.4838,103.5022 378.4838,105.9542 C378.4838,106.5092 378.4178,107.0672 378.3198,107.6872 L365.9948,107.6872 Z" id="Fill-3"></path>
                <polygon id="Fill-5" points="391.6936 97.781 396.3356 97.781 390.1246 114.128 385.3176 114.128 379.1066 97.781 383.7486 97.781 387.7046 109.224"></polygon>
                <path d="M409.7082,104.4172 C409.2182,102.1952 407.5832,101.1152 405.6542,101.1152 C403.3982,101.1152 401.8622,102.3252 401.3712,104.4172 L409.7082,104.4172 Z M401.4362,107.6872 C401.9932,109.7472 403.5282,110.7612 406.0472,110.7612 C407.6482,110.7612 408.8912,110.2052 409.7082,109.1252 L413.1072,111.0882 C411.5062,113.4092 409.1202,114.5862 405.9812,114.5862 C403.2682,114.5862 401.1102,113.7682 399.4752,112.1342 C397.8412,110.4982 397.0222,108.4382 397.0222,105.9542 C397.0222,103.5022 397.8412,101.4422 399.4422,99.8082 C401.0442,98.1402 403.1372,97.3242 405.6542,97.3242 C408.0402,97.3242 410.0352,98.1402 411.5722,99.8082 C413.1422,101.4752 413.9252,103.5022 413.9252,105.9542 C413.9252,106.5092 413.8602,107.0672 413.7622,107.6872 L401.4362,107.6872 Z" id="Fill-7"></path>
                <polygon id="Fill-9" points="417.035 114.127 421.252 114.127 421.252 90.261 417.035 90.261"></polygon>
                <path d="M433.0549,110.466 C434.3289,110.466 435.3749,110.042 436.2259,109.192 C437.0759,108.341 437.4999,107.263 437.4999,105.954 C437.4999,104.647 437.0759,103.567 436.2259,102.718 C435.3749,101.868 434.3289,101.443 433.0549,101.443 C431.7789,101.443 430.7329,101.868 429.8839,102.718 C429.0659,103.567 428.6399,104.647 428.6399,105.954 C428.6399,107.263 429.0659,108.341 429.8839,109.192 C430.7329,110.042 431.7789,110.466 433.0549,110.466 M433.0549,114.586 C430.6349,114.586 428.5759,113.768 426.9079,112.1 C425.2409,110.434 424.4229,108.374 424.4229,105.954 C424.4229,103.535 425.2409,101.509 426.9079,99.841 C428.5759,98.173 430.6349,97.324 433.0549,97.324 C435.4739,97.324 437.5329,98.173 439.2009,99.841 C440.8669,101.509 441.7169,103.535 441.7169,105.954 C441.7169,108.374 440.8669,110.434 439.2009,112.1 C437.5329,113.768 435.4739,114.586 433.0549,114.586" id="Fill-11"></path>
                <path d="M453.5881,110.5647 C454.8971,110.5647 455.9751,110.1387 456.8251,109.2887 C457.7081,108.4057 458.1321,107.2947 458.1321,105.9547 C458.1321,104.6137 457.7081,103.5027 456.8251,102.6517 C455.9751,101.7697 454.8971,101.3457 453.5881,101.3457 C452.2811,101.3457 451.2011,101.7697 450.3531,102.6517 C449.5021,103.5027 449.0761,104.6137 449.0761,105.9547 C449.0761,107.2947 449.5021,108.4057 450.3531,109.2887 C451.2011,110.1387 452.2811,110.5647 453.5881,110.5647 M459.9961,99.8407 C461.5661,101.5087 462.3501,103.5347 462.3501,105.9547 C462.3501,108.3737 461.5661,110.4337 459.9961,112.1007 C458.4591,113.7687 456.5631,114.5857 454.3731,114.5857 C452.0851,114.5857 450.3181,113.8007 449.0761,112.1987 L449.0761,120.6677 L444.8591,120.6677 L444.8591,97.7807 L449.0761,97.7807 L449.0761,99.7097 C450.3181,98.1077 452.0851,97.3237 454.3731,97.3237 C456.5631,97.3237 458.4591,98.1727 459.9961,99.8407" id="Fill-12"></path>
                <path d="M489.7473,104.0578 L489.7473,114.1278 L485.5303,114.1278 L485.5303,104.3528 C485.5303,102.3908 484.5173,101.2458 482.7833,101.2458 C480.8543,101.2458 479.7443,102.5548 479.7443,104.9408 L479.7443,114.1278 L475.5273,114.1278 L475.5273,104.3528 C475.5273,102.3908 474.5133,101.2458 472.7803,101.2458 C470.9163,101.2458 469.7063,102.5548 469.7063,104.9408 L469.7063,114.1278 L465.4893,114.1278 L465.4893,97.7808 L469.7063,97.7808 L469.7063,99.5138 C470.6873,98.0428 472.1903,97.3238 474.2513,97.3238 C476.2463,97.3238 477.7493,98.1078 478.6983,99.6768 C479.7763,98.1078 481.4103,97.3238 483.5693,97.3238 C487.3283,97.3238 489.7473,99.9718 489.7473,104.0578" id="Fill-13"></path>
                <path d="M505.3469,104.4172 C504.8559,102.1952 503.2219,101.1152 501.2929,101.1152 C499.0369,101.1152 497.4999,102.3252 497.0099,104.4172 L505.3469,104.4172 Z M497.0749,107.6872 C497.6309,109.7472 499.1659,110.7612 501.6849,110.7612 C503.2859,110.7612 504.5289,110.2052 505.3469,109.1252 L508.7449,111.0882 C507.1439,113.4092 504.7589,114.5862 501.6199,114.5862 C498.9059,114.5862 496.7489,113.7682 495.1139,112.1342 C493.4789,110.4982 492.6609,108.4382 492.6609,105.9542 C492.6609,103.5022 493.4789,101.4422 495.0799,99.8082 C496.6829,98.1402 498.7749,97.3242 501.2929,97.3242 C503.6779,97.3242 505.6739,98.1402 507.2099,99.8082 C508.7799,101.4752 509.5639,103.5022 509.5639,105.9542 C509.5639,106.5092 509.4989,107.0672 509.3999,107.6872 L497.0749,107.6872 Z" id="Fill-14"></path>
                <path d="M526.1731,99.1218 C527.3501,100.3308 527.9401,101.9658 527.9401,104.0898 L527.9401,114.1278 L523.7211,114.1278 L523.7211,104.6138 C523.7211,102.4238 522.4461,101.2468 520.4861,101.2468 C518.2941,101.2468 516.8891,102.5878 516.8891,105.2998 L516.8891,114.1278 L512.6711,114.1278 L512.6711,97.7808 L516.8891,97.7808 L516.8891,99.6128 C517.9021,98.0758 519.5361,97.3238 521.7601,97.3238 C523.5591,97.3238 525.0291,97.9118 526.1731,99.1218" id="Fill-15"></path>
                <path d="M541.051,101.8362 L537.357,101.8362 L537.357,108.6342 C537.357,110.4012 538.632,110.4342 541.051,110.3022 L541.051,114.1282 C535.265,114.7822 533.138,113.1142 533.138,108.6342 L533.138,101.8362 L530.294,101.8362 L530.294,97.7812 L533.138,97.7812 L533.138,94.4792 L537.357,93.2042 L537.357,97.7812 L541.051,97.7812 L541.051,101.8362 Z" id="Fill-16"></path>
                <path d="M341.799,143.666 L346.016,143.666 L346.016,127.319 L341.799,127.319 L341.799,143.666 Z M341.309,122.775 C341.309,121.369 342.486,120.159 343.892,120.159 C345.329,120.159 346.507,121.369 346.507,122.775 C346.507,124.18 345.329,125.358 343.892,125.358 C342.486,125.358 341.309,124.18 341.309,122.775 Z" id="Fill-17"></path>
                <path d="M363.5422,128.6599 C364.7182,129.8699 365.3072,131.5039 365.3072,133.6289 L365.3072,143.6659 L361.0882,143.6659 L361.0882,134.1509 C361.0882,131.9619 359.8132,130.7849 357.8532,130.7849 C355.6612,130.7849 354.2562,132.1259 354.2562,134.8389 L354.2562,143.6659 L350.0392,143.6659 L350.0392,127.3189 L354.2562,127.3189 L354.2562,129.1509 C355.2702,127.6139 356.9032,126.8629 359.1272,126.8629 C360.9252,126.8629 362.3962,127.4509 363.5422,128.6599" id="Fill-18"></path>
                <polygon id="Fill-19" points="379.5315 127.3191 384.1725 127.3191 377.9625 143.6661 373.1555 143.6661 366.9445 127.3191 371.5865 127.3191 375.5425 138.7621"></polygon>
                <path d="M397.5461,133.9558 C397.0561,131.7338 395.4211,130.6528 393.4921,130.6528 C391.2361,130.6528 389.6991,131.8628 389.2091,133.9558 L397.5461,133.9558 Z M389.2741,137.2258 C389.8311,139.2848 391.3661,140.2998 393.8851,140.2998 C395.4861,140.2998 396.7291,139.7438 397.5461,138.6638 L400.9451,140.6268 C399.3441,142.9468 396.9581,144.1248 393.8191,144.1248 C391.1061,144.1248 388.9481,143.3068 387.3131,141.6728 C385.6791,140.0368 384.8601,137.9768 384.8601,135.4928 C384.8601,133.0408 385.6791,130.9798 387.2801,129.3468 C388.8821,127.6788 390.9751,126.8628 393.4921,126.8628 C395.8781,126.8628 397.8731,127.6788 399.4101,129.3468 C400.9801,131.0138 401.7631,133.0408 401.7631,135.4928 C401.7631,136.0478 401.6981,136.6048 401.6001,137.2258 L389.2741,137.2258 Z" id="Fill-20"></path>
                <path d="M411.0832,133.7595 C413.4712,134.2505 416.5762,135.3955 416.5442,138.8935 C416.5442,140.5605 415.9222,141.8675 414.6472,142.7825 C413.4052,143.6655 411.8362,144.1245 409.9732,144.1245 C406.6052,144.1245 404.3172,142.8165 403.1072,140.2335 L406.7692,138.1725 C407.2602,139.5795 408.3062,140.2995 409.9732,140.2995 C411.4772,140.2995 412.2292,139.8405 412.2292,138.8935 C412.2292,138.0105 410.9202,137.5205 409.2532,137.0945 C406.8342,136.4745 403.7942,135.4595 403.7942,132.0595 C403.7942,130.4575 404.3822,129.1835 405.5602,128.2685 C406.7692,127.3195 408.2392,126.8625 410.0052,126.8625 C412.6522,126.8625 414.9422,128.1045 416.2172,130.3275 L412.6202,132.2885 C412.0972,131.1765 411.2152,130.6205 410.0052,130.6205 C408.9262,130.6205 408.1082,131.1445 408.1082,131.9615 C408.1082,132.8445 409.4172,133.3355 411.0832,133.7595" id="Fill-21"></path>
                <path d="M428.2824,131.3747 L424.5884,131.3747 L424.5884,138.1727 C424.5884,139.9387 425.8624,139.9727 428.2824,139.8407 L428.2824,143.6657 C422.4964,144.3197 420.3694,142.6517 420.3694,138.1727 L420.3694,131.3747 L417.5254,131.3747 L417.5254,127.3187 L420.3694,127.3187 L420.3694,124.0167 L424.5884,122.7427 L424.5884,127.3187 L428.2824,127.3187 L428.2824,131.3747 Z" id="Fill-22"></path>
                <path d="M455.9416,133.5964 L455.9416,143.6654 L451.7236,143.6654 L451.7236,133.8914 C451.7236,131.9294 450.7106,130.7844 448.9776,130.7844 C447.0486,130.7844 445.9376,132.0934 445.9376,134.4784 L445.9376,143.6654 L441.7206,143.6654 L441.7206,133.8914 C441.7206,131.9294 440.7076,130.7844 438.9736,130.7844 C437.1096,130.7844 435.9006,132.0934 435.9006,134.4784 L435.9006,143.6654 L431.6826,143.6654 L431.6826,127.3194 L435.9006,127.3194 L435.9006,129.0514 C436.8816,127.5814 438.3856,126.8624 440.4446,126.8624 C442.4396,126.8624 443.9426,127.6464 444.8916,129.2154 C445.9696,127.6464 447.6036,126.8624 449.7626,126.8624 C453.5216,126.8624 455.9416,129.5104 455.9416,133.5964" id="Fill-23"></path>
                <path d="M471.5383,133.9558 C471.0483,131.7338 469.4133,130.6528 467.4843,130.6528 C465.2283,130.6528 463.6913,131.8628 463.2013,133.9558 L471.5383,133.9558 Z M463.2663,137.2258 C463.8233,139.2848 465.3583,140.2998 467.8773,140.2998 C469.4783,140.2998 470.7213,139.7438 471.5383,138.6638 L474.9373,140.6268 C473.3363,142.9468 470.9503,144.1248 467.8113,144.1248 C465.0983,144.1248 462.9403,143.3068 461.3053,141.6728 C459.6713,140.0368 458.8523,137.9768 458.8523,135.4928 C458.8523,133.0408 459.6713,130.9798 461.2723,129.3468 C462.8743,127.6788 464.9673,126.8628 467.4843,126.8628 C469.8703,126.8628 471.8653,127.6788 473.4023,129.3468 C474.9723,131.0138 475.7553,133.0408 475.7553,135.4928 C475.7553,136.0478 475.6903,136.6048 475.5923,137.2258 L463.2663,137.2258 Z" id="Fill-24"></path>
                <path d="M492.3684,128.6599 C493.5444,129.8699 494.1334,131.5039 494.1334,133.6289 L494.1334,143.6659 L489.9144,143.6659 L489.9144,134.1509 C489.9144,131.9619 488.6394,130.7849 486.6794,130.7849 C484.4874,130.7849 483.0824,132.1259 483.0824,134.8389 L483.0824,143.6659 L478.8654,143.6659 L478.8654,127.3189 L483.0824,127.3189 L483.0824,129.1509 C484.0964,127.6139 485.7294,126.8629 487.9534,126.8629 C489.7514,126.8629 491.2224,127.4509 492.3684,128.6599" id="Fill-25"></path>
                <path d="M507.2444,131.3747 L503.5494,131.3747 L503.5494,138.1727 C503.5494,139.9387 504.8254,139.9727 507.2444,139.8407 L507.2444,143.6657 C501.4564,144.3197 499.3324,142.6517 499.3324,138.1727 L499.3324,131.3747 L496.4884,131.3747 L496.4884,127.3187 L499.3324,127.3187 L499.3324,124.0167 L503.5494,122.7427 L503.5494,127.3187 L507.2444,127.3187 L507.2444,131.3747 Z" id="Fill-26"></path>
                <path d="M366.0569,163.1364 L366.0569,173.2054 L361.8399,173.2054 L361.8399,163.4304 C361.8399,161.4694 360.8269,160.3244 359.0929,160.3244 C357.1639,160.3244 356.0539,161.6334 356.0539,164.0184 L356.0539,173.2054 L351.8359,173.2054 L351.8359,163.4304 C351.8359,161.4694 350.8229,160.3244 349.0899,160.3244 C347.2259,160.3244 346.0159,161.6334 346.0159,164.0184 L346.0159,173.2054 L341.7989,173.2054 L341.7989,156.8594 L346.0159,156.8594 L346.0159,158.5914 C346.9969,157.1214 348.4999,156.4024 350.5609,156.4024 C352.5559,156.4024 354.0589,157.1864 355.0069,158.7554 C356.0859,157.1864 357.7199,156.4024 359.8789,156.4024 C363.6379,156.4024 366.0569,159.0504 366.0569,163.1364" id="Fill-27"></path>
                <path d="M377.6975,169.6433 C379.0065,169.6433 380.0855,169.2173 380.9345,168.3673 C381.8175,167.4843 382.2425,166.3733 382.2425,165.0333 C382.2425,163.6913 381.8175,162.5813 380.9345,161.7303 C380.0855,160.8473 379.0065,160.4233 377.6975,160.4233 C376.3905,160.4233 375.3125,160.8473 374.4625,161.7303 C373.6115,162.5813 373.1855,163.6913 373.1855,165.0333 C373.1855,166.3733 373.6115,167.4843 374.4625,168.3673 C375.3125,169.2173 376.3905,169.6433 377.6975,169.6433 Z M382.2425,156.8593 L386.4595,156.8593 L386.4595,173.2063 L382.2425,173.2063 L382.2425,171.2773 C380.9685,172.8783 379.2025,173.6643 376.9145,173.6643 C374.7225,173.6643 372.8585,172.8463 371.2915,171.1783 C369.7545,169.5113 368.9685,167.4523 368.9685,165.0333 C368.9685,162.6133 369.7545,160.5863 371.2915,158.9183 C372.8585,157.2523 374.7225,156.4023 376.9145,156.4023 C379.2025,156.4023 380.9685,157.1863 382.2425,158.7883 L382.2425,156.8593 Z" id="Fill-28"></path>
                <path d="M403.9543,158.1999 C405.1303,159.4099 405.7203,161.0439 405.7203,163.1689 L405.7203,173.2059 L401.5013,173.2059 L401.5013,163.6909 C401.5013,161.5019 400.2263,160.3249 398.2653,160.3249 C396.0743,160.3249 394.6683,161.6659 394.6683,164.3789 L394.6683,173.2059 L390.4513,173.2059 L390.4513,156.8589 L394.6683,156.8589 L394.6683,158.6909 C395.6823,157.1539 397.3163,156.4019 399.5393,156.4019 C401.3373,156.4019 402.8093,156.9899 403.9543,158.1999" id="Fill-29"></path>
                <path d="M417.3586,169.6433 C418.6676,169.6433 419.7466,169.2173 420.5956,168.3673 C421.4786,167.4843 421.9026,166.3733 421.9026,165.0333 C421.9026,163.6913 421.4786,162.5813 420.5956,161.7303 C419.7466,160.8473 418.6676,160.4233 417.3586,160.4233 C416.0516,160.4233 414.9736,160.8473 414.1236,161.7303 C413.2726,162.5813 412.8466,163.6913 412.8466,165.0333 C412.8466,166.3733 413.2726,167.4843 414.1236,168.3673 C414.9736,169.2173 416.0516,169.6433 417.3586,169.6433 Z M421.9026,156.8593 L426.1216,156.8593 L426.1216,173.2063 L421.9026,173.2063 L421.9026,171.2773 C420.6286,172.8783 418.8636,173.6643 416.5756,173.6643 C414.3836,173.6643 412.5216,172.8463 410.9506,171.1783 C409.4156,169.5113 408.6296,167.4523 408.6296,165.0333 C408.6296,162.6133 409.4156,160.5863 410.9506,158.9183 C412.5216,157.2523 414.3836,156.4023 416.5756,156.4023 C418.8636,156.4023 420.6286,157.1863 421.9026,158.7883 L421.9026,156.8593 Z" id="Fill-30"></path>
                <path d="M441.3254,161.5993 C440.4744,160.7503 439.3964,160.3253 438.0574,160.3253 C436.7164,160.3253 435.6384,160.7503 434.7554,161.5993 C433.9054,162.4163 433.4784,163.4953 433.4784,164.7723 C433.4784,167.3873 435.4074,169.2493 438.0574,169.2493 C440.7054,169.2493 442.6344,167.3873 442.6344,164.7723 C442.6344,163.4953 442.2084,162.4163 441.3254,161.5993 Z M442.6344,156.8593 L446.7524,156.8593 L446.7524,172.4203 C446.7524,174.9393 445.9034,176.8683 444.2354,178.2083 C442.5674,179.5473 440.5744,180.2023 438.2214,180.2023 C434.6884,180.2023 431.9094,178.8283 430.4714,176.2133 L434.0684,174.1533 C434.8854,175.6903 436.3244,176.4433 438.3504,176.4433 C441.0004,176.4433 442.6344,175.0033 442.6344,172.4203 L442.6344,170.6553 C441.3914,172.3233 439.6594,173.1413 437.4034,173.1413 C435.0824,173.1413 433.1514,172.3233 431.5844,170.7213 C430.0474,169.0853 429.2624,167.0923 429.2624,164.7723 C429.2624,162.4493 430.0474,160.4883 431.6164,158.8543 C433.1854,157.2183 435.1144,156.4023 437.4034,156.4023 C439.6594,156.4023 441.3914,157.2183 442.6344,158.8863 L442.6344,156.8593 Z" id="Fill-31"></path>
                <path d="M462.5793,163.4958 C462.0893,161.2738 460.4543,160.1928 458.5253,160.1928 C456.2693,160.1928 454.7323,161.4028 454.2423,163.4958 L462.5793,163.4958 Z M454.3073,166.7658 C454.8643,168.8248 456.3993,169.8388 458.9183,169.8388 C460.5193,169.8388 461.7623,169.2818 462.5793,168.2038 L465.9783,170.1658 C464.3773,172.4868 461.9913,173.6638 458.8523,173.6638 C456.1393,173.6638 453.9813,172.8468 452.3463,171.2128 C450.7123,169.5768 449.8933,167.5168 449.8933,165.0328 C449.8933,162.5808 450.7123,160.5198 452.3133,158.8868 C453.9153,157.2188 456.0083,156.4018 458.5253,156.4018 C460.9113,156.4018 462.9063,157.2188 464.4433,158.8868 C466.0133,160.5538 466.7963,162.5808 466.7963,165.0328 C466.7963,165.5878 466.7313,166.1428 466.6333,166.7658 L454.3073,166.7658 Z" id="Fill-32"></path>
                <path d="M494.1623,163.1364 L494.1623,173.2054 L489.9453,173.2054 L489.9453,163.4304 C489.9453,161.4694 488.9323,160.3244 487.1983,160.3244 C485.2693,160.3244 484.1593,161.6334 484.1593,164.0184 L484.1593,173.2054 L479.9413,173.2054 L479.9413,163.4304 C479.9413,161.4694 478.9283,160.3244 477.1953,160.3244 C475.3313,160.3244 474.1213,161.6334 474.1213,164.0184 L474.1213,173.2054 L469.9043,173.2054 L469.9043,156.8594 L474.1213,156.8594 L474.1213,158.5914 C475.1023,157.1214 476.6073,156.4024 478.6653,156.4024 C480.6613,156.4024 482.1633,157.1864 483.1123,158.7554 C484.1913,157.1864 485.8253,156.4024 487.9843,156.4024 C491.7423,156.4024 494.1623,159.0504 494.1623,163.1364" id="Fill-33"></path>
                <path d="M509.76,163.4958 C509.269,161.2738 507.635,160.1928 505.706,160.1928 C503.45,160.1928 501.913,161.4028 501.422,163.4958 L509.76,163.4958 Z M501.488,166.7658 C502.044,168.8248 503.579,169.8388 506.098,169.8388 C507.699,169.8388 508.942,169.2818 509.76,168.2038 L513.158,170.1658 C511.557,172.4868 509.172,173.6638 506.033,173.6638 C503.319,173.6638 501.161,172.8468 499.527,171.2128 C497.892,169.5768 497.074,167.5168 497.074,165.0328 C497.074,162.5808 497.892,160.5198 499.493,158.8868 C501.095,157.2188 503.188,156.4018 505.706,156.4018 C508.091,156.4018 510.087,157.2188 511.623,158.8868 C513.193,160.5538 513.977,162.5808 513.977,165.0328 C513.977,165.5878 513.912,166.1428 513.813,166.7658 L501.488,166.7658 Z" id="Fill-34"></path>
                <path d="M530.5862,158.1999 C531.7632,159.4099 532.3532,161.0439 532.3532,163.1689 L532.3532,173.2059 L528.1342,173.2059 L528.1342,163.6909 C528.1342,161.5019 526.8592,160.3249 524.8992,160.3249 C522.7072,160.3249 521.3022,161.6659 521.3022,164.3789 L521.3022,173.2059 L517.0842,173.2059 L517.0842,156.8589 L521.3022,156.8589 L521.3022,158.6909 C522.3152,157.1539 523.9492,156.4019 526.1732,156.4019 C527.9722,156.4019 529.4422,156.9899 530.5862,158.1999" id="Fill-35"></path>
                <path d="M545.4661,160.9128 L541.7701,160.9128 L541.7701,167.7148 C541.7701,169.4788 543.0461,169.5118 545.4661,169.3808 L545.4661,173.2058 C539.6781,173.8598 537.5531,172.1918 537.5531,167.7148 L537.5531,160.9128 L534.7091,160.9128 L534.7091,156.8588 L537.5531,156.8588 L537.5531,153.5578 L541.7701,152.2818 L541.7701,156.8588 L545.4661,156.8588 L545.4661,160.9128 Z" id="Fill-36"></path>
                <path d="M306.011,90.8283 L306.011,173.4223 L262.897,173.4223 L262.897,109.0473 L240.999,86.4043 L219.142,108.9383 L219.097,173.4273 L175.982,173.4273 L175.982,108.9383 C175.982,96.2163 166.067,86.4143 154.156,86.3983 L154.156,86.3023 L131.699,86.3023 L131.699,43.6903 L88.687,43.6903 L88.687,86.3023 L64.961,86.3023 C52.907,86.3023 43.011,95.8183 43.011,107.8713 C43.011,119.9253 52.907,129.8213 64.961,129.8213 L88.687,129.8213 L88.687,86.3023 L131.699,86.3023 L131.699,173.4603 L64.961,173.3853 C29.055,173.3853 0,143.7783 0,107.8713 C0,72.0923 29.055,43.4013 64.961,43.4013 L88.174,43.4003 L88.174,0.0003 L132.229,0.0003 L132.229,43.4003 L154.129,43.3903 C173.171,43.3903 190.16,51.6653 202.061,64.7523 L240.999,25.8203 L306.011,90.8283 Z" id="Fill-37"></path>
            </g>
        </g>
    </g>
</svg>