<?xml version="1.0" encoding="UTF-8"?>
<svg width="199px" height="40px" viewBox="0 0 199 40" version="1.1" xmlns="http://www.w3.org/2000/svg" xmlns:xlink="http://www.w3.org/1999/xlink">
    <!-- Generator: Sketch 51.3 (57544) - http://www.bohemiancoding.com/sketch -->
    <title>logo</title>
    <desc>Created with Sketch.</desc>
    <defs></defs>
    <g id="0.Zaglushka" stroke="none" stroke-width="1" fill="none" fill-rule="evenodd">
        <g id="Screen_zaglushka" transform="translate(-41.000000, -27.000000)" fill="#16284A">
            <g id="logo" transform="translate(41.000000, 27.000000)">
                <path d="M126.084123,21.3644923 C126.084123,23.0875692 125.465354,24.5795692 124.245662,25.7998769 C123.025354,27.0131077 121.536431,27.6281846 119.820431,27.6281846 C118.097046,27.6281846 116.604738,27.0131077 115.385354,25.8001846 C114.171815,24.5801846 113.556738,23.0881846 113.556738,21.3644923 C113.556738,19.6478769 114.171815,18.1592615 115.385046,16.9395692 C116.604431,15.7195692 118.097046,15.1011077 119.820431,15.1011077 C121.536738,15.1011077 123.025662,15.7195692 124.245354,16.9395692 C125.465354,18.1595692 126.084123,19.6484923 126.084123,21.3644923 M119.820431,12.6968 C117.434277,12.6968 115.367508,13.5500308 113.677969,15.2321846 C111.988123,16.9291077 111.131508,18.9921846 111.131508,21.3644923 C111.131508,23.7509538 111.988123,25.8177231 113.677969,27.5072615 C115.367508,29.1968 117.434277,30.0534154 119.820431,30.0534154 C122.192738,30.0534154 124.255815,29.1968 125.952431,27.5072615 C127.634892,25.8177231 128.487815,23.7509538 128.487815,21.3644923 C128.487815,18.9921846 127.634892,16.9291077 125.952123,15.2318769 C124.255815,13.5500308 122.192738,12.6968 119.820431,12.6968" id="Fill-3"></path>
                <polygon id="Fill-5" points="134.708523 15.0522769 134.693446 15.0522769 134.693446 30.0535077 137.223908 30.0535077 137.223908 15.2061231 144.0356 15.2061231 144.0356 12.6968923 134.708523 12.6968923"></polygon>
                <path d="M158.219046,19.4507077 C158.219046,20.6020923 157.805508,21.5990154 156.990431,22.4140923 C156.182123,23.2224 155.188585,23.6322462 154.037508,23.6322462 L152.389815,23.6322462 L152.389815,15.2796308 L154.037508,15.2796308 C155.188277,15.2796308 156.181815,15.6928615 156.990738,16.5085538 C157.805815,17.3168615 158.219046,18.3067077 158.219046,19.4507077 M154.037508,12.6968615 L149.807046,12.6968615 L149.807046,30.0534769 L152.389815,30.0534769 L152.389815,26.2150154 L154.037508,26.2150154 C155.893815,26.2150154 157.500585,25.5494769 158.8132,24.2371692 C160.125815,22.9239385 160.791354,21.3137846 160.791354,19.4507077 C160.791354,17.5947077 160.125815,15.9879385 158.8132,14.6750154 C157.500277,13.3624 155.893508,12.6968615 154.037508,12.6968615" id="Fill-7"></path>
                <path d="M167.710338,25.3885231 L170.110646,19.3531385 L172.530954,25.3885231 L167.710338,25.3885231 Z M163.151569,29.9479077 L163.109415,30.0534462 L165.840492,30.0534462 L166.692185,27.9189846 L173.549415,27.9189846 L174.401108,30.0534462 L177.121723,30.0534462 L170.110338,12.5352923 L163.151569,29.9479077 Z" id="Fill-9"></path>
                <path d="M187.947723,15.2797538 L187.947723,23.6323692 L186.340031,23.6323692 C185.189262,23.6323692 184.195723,23.2222154 183.387108,22.4142154 C182.571723,21.5991385 182.158492,20.6022154 182.158492,19.4508308 C182.158492,18.3068308 182.571415,17.3169846 183.387415,16.5080615 C184.196031,15.6929846 185.189262,15.2797538 186.340031,15.2797538 L187.947723,15.2797538 Z M196.360031,19.4508308 C196.360031,20.6019077 195.946492,21.5988308 195.131108,22.4142154 C194.3228,23.2222154 193.329262,23.6323692 192.178185,23.6323692 L190.570185,23.6323692 L190.570185,15.2797538 L192.178185,15.2797538 C193.328954,15.2797538 194.322492,15.6929846 195.131415,16.5086769 C195.946492,17.3172923 196.360031,18.3071385 196.360031,19.4508308 Z M196.953877,14.6751385 C195.640954,13.3625231 194.034185,12.6966769 192.178185,12.6966769 L186.340031,12.6966769 C184.483723,12.6966769 182.877262,13.3625231 181.564338,14.6751385 C180.251415,15.9880615 179.585877,17.5945231 179.585877,19.4508308 C179.585877,21.3136 180.251415,22.9240615 181.564338,24.2369846 C182.876954,25.5496 184.483723,26.2151385 186.340031,26.2151385 L187.947723,26.2151385 L187.947723,30.0536 L190.570185,30.0536 L190.570185,26.2151385 L192.178185,26.2151385 C194.034492,26.2151385 195.641262,25.5496 196.953877,24.2369846 C198.266492,22.9240615 198.932031,21.3136 198.932031,19.4508308 C198.932031,17.5945231 198.266492,15.9880615 196.953877,14.6751385 Z" id="Fill-11"></path>
                <path d="M88.4645538,26.8515692 C87.9777846,27.3318769 87.3876308,27.5755692 86.7100923,27.5755692 L83.7273231,27.5755692 L83.7273231,22.6084923 L86.7100923,22.6084923 C87.3870154,22.6084923 87.9771692,22.8521846 88.4642462,23.3321846 C88.9448615,23.8195692 89.1885538,24.4137231 89.1885538,25.0974154 C89.1885538,25.7737231 88.9448615,26.3638769 88.4645538,26.8515692 M87.5497846,19.4066462 C87.0627077,19.8872615 86.4617846,20.1309538 85.7639385,20.1309538 L83.7273231,20.1309538 L83.7273231,15.1746462 L85.8165538,15.1746462 C86.4934769,15.1746462 87.0836308,15.4183385 87.5707077,15.8986462 C88.0510154,16.3792615 88.2947077,16.9694154 88.2947077,17.6528 C88.2947077,18.3291077 88.0442462,18.9192615 87.5497846,19.4066462 M89.4784,20.9724923 C90.3371692,20.0429538 90.7722462,18.9263385 90.7722462,17.6528 C90.7722462,16.2921846 90.2836308,15.1134154 89.3196308,14.1494154 C88.3556308,13.1854154 87.1768615,12.6968 85.8165538,12.6968 L81.2494769,12.6968 L81.2494769,26.3515692 L82.9088615,30.0534154 L86.7100923,30.0534154 C88.0707077,30.0534154 89.2494769,29.5644923 90.2134769,28.6008 C91.1774769,27.6371077 91.6660923,26.4583385 91.6660923,25.0974154 C91.6660923,24.2398769 91.4577846,23.4312615 91.0467077,22.6946462 C90.6645538,21.9989538 90.1374769,21.4195692 89.4784,20.9724923" id="Fill-14"></path>
                <polygon id="Fill-16" points="91.9113538 36.0003077 91.1073538 36.0027692 89.7316615 37.2596923 89.7285846 36.0061538 89.1624308 36.0073846 89.1704308 39.3670769 89.7368923 39.3655385 89.7335077 37.956 89.7827385 37.9123077 91.2319692 39.3618462 92.0347385 39.3596923 90.2005846 37.5516923"></polygon>
                <path d="M94.8740923,38.8897231 C94.6620923,38.8897231 94.4639385,38.8386462 94.2854769,38.7377231 C94.1070154,38.6364923 93.9630154,38.4903385 93.8577846,38.3038769 C93.7519385,38.1158769 93.6980923,37.9106462 93.6977846,37.6934154 C93.6968615,37.3518769 93.8100923,37.0681846 94.0433231,36.8269538 C94.2762462,36.5863385 94.5470154,36.4691077 94.8713231,36.4681846 L94.8737846,36.4681846 C95.1953231,36.4681846 95.4657846,36.5841846 95.6999385,36.8229538 C95.9322462,37.0598769 96.0504,37.3506462 96.0513231,37.6878769 C96.0519385,37.9051077 95.9990154,38.1106462 95.8940923,38.2986462 C95.7897846,38.4860308 95.6467077,38.6328 95.4688615,38.7346462 C95.2900923,38.8368 95.0913231,38.8891077 94.8774769,38.8897231 L94.8740923,38.8897231 Z M94.8768615,35.9106462 L94.8716308,35.9106462 C94.3550154,35.9118769 93.9220923,36.1029538 93.5851692,36.4783385 C93.2790154,36.8183385 93.1242462,37.2244923 93.1254769,37.6863385 C93.1264,38.1521846 93.2919385,38.5641846 93.6168615,38.9115692 C93.9420923,39.2589538 94.3648615,39.4349538 94.8734769,39.4349538 L94.8802462,39.4349538 C95.3904,39.4340308 95.8134769,39.2555692 96.1377846,38.9054154 C96.4614769,38.5564923 96.6245538,38.1432615 96.6236308,37.6777231 C96.6224,37.2143385 96.4657846,36.8072615 96.1577846,36.4688 C95.8193231,36.0986462 95.3885538,35.9106462 94.8768615,35.9106462 Z" id="Fill-18"></path>
                <polygon id="Fill-20" points="101.826615 35.9756615 100.592769 38.3959692 99.3423077 35.9821231 99.1284615 35.9824308 97.9881538 39.3452 98.5816923 39.3433538 99.3278462 37.0987385 100.507538 39.3390462 100.677385 39.3381231 101.842923 37.0953538 102.602923 39.3335077 103.196154 39.3322769 102.046923 35.9756615"></polygon>
                <polygon id="Fill-22" points="104.704615 35.9690462 104.712923 39.3287385 105.279385 39.3268923 105.272615 36.5099692 106.983692 36.5056615 106.990769 39.3225846 107.557231 39.3213538 107.548615 35.9616615"></polygon>
                <polygon id="Fill-24" points="110.593754 35.9543385 109.061754 39.3177231 109.672831 39.3164923 110.682369 37.0872615 111.711908 39.3109538 112.319908 39.3094154 110.766369 35.9534154"></polygon>
                <path d="M115.917969,36.5207385 C116.0792,36.5952 116.210892,36.6945846 116.308431,36.8161231 C116.3912,36.9195077 116.458585,37.0542769 116.509046,37.2185846 L114.325046,37.2235077 C114.402892,36.9924308 114.510277,36.8148923 114.644738,36.6939692 C114.857969,36.5025846 115.106277,36.4093538 115.404123,36.4084308 L115.406277,36.4084308 C115.584738,36.4084308 115.757046,36.4462769 115.917969,36.5207385 Z M117.141969,37.6496615 C117.136431,37.1961231 117.010892,36.8118154 116.768738,36.5075077 C116.428431,36.0779692 115.969046,35.8601231 115.4032,35.8601231 L115.397046,35.8601231 C114.843815,35.8610462 114.396431,36.0764308 114.066892,36.4992 C113.808738,36.8305846 113.677969,37.2127385 113.678892,37.6352 C113.680123,38.0841231 113.836123,38.4918154 114.142585,38.8472 C114.451508,39.2035077 114.881969,39.3844308 115.422277,39.3844308 L115.429354,39.3844308 C115.673662,39.3838154 115.896431,39.3453538 116.090892,39.2702769 C116.285354,39.1945846 116.462892,39.0838154 116.618892,38.9398154 C116.773354,38.7967385 116.911508,38.6065846 117.028738,38.3748923 L117.063508,38.3072 L116.583508,38.0564308 L116.546277,38.1185846 C116.425662,38.3204308 116.313046,38.4675077 116.211815,38.5561231 C116.1112,38.6438154 115.986892,38.7155077 115.842277,38.7690462 C115.697046,38.8225846 115.545969,38.8499692 115.392738,38.8502769 L115.387815,38.8502769 C115.070585,38.8502769 114.810892,38.7419692 114.594585,38.5188923 C114.394892,38.3130462 114.282892,38.0496615 114.260738,37.7339692 L117.142585,37.7272 L117.141969,37.6496615 Z" id="Fill-26"></path>
                <polygon id="Fill-28" points="121.587754 35.9272923 120.784062 35.9288308 119.408369 37.1857538 119.404985 35.9322154 118.838831 35.9337538 118.847446 39.2934462 119.4136 39.2919077 119.409908 37.8823692 119.459446 37.8386769 120.908677 39.2882154 121.711446 39.2860615 119.877292 37.4780615"></polygon>
                <path d="M125.761108,38.2908615 C125.4768,38.6508615 125.119569,38.8262462 124.6688,38.8274769 C124.432185,38.8287077 124.204185,38.7742462 124.009723,38.6677846 C123.815877,38.5619385 123.6608,38.4108615 123.549723,38.2185538 C123.437415,38.0253231 123.3808,37.8164 123.380185,37.5979385 C123.379569,37.2570154 123.498031,36.9754769 123.742031,36.7367077 C123.982954,36.5010154 124.291877,36.3807077 124.660185,36.3794769 L124.6648,36.3794769 C125.129108,36.3794769 125.486338,36.5527077 125.756492,36.9090154 L125.798954,36.9647077 L126.249415,36.6837846 L126.210338,36.6188615 C126.109108,36.4505538 125.984185,36.3096308 125.838954,36.2000923 C125.694954,36.0914769 125.518031,36.0025538 125.313415,35.9364 C125.111262,35.8702462 124.898338,35.8367077 124.6808,35.8367077 L124.674954,35.8367077 C124.325415,35.8376308 124.0048,35.9170154 123.722031,36.0724 C123.438031,36.2290154 123.212185,36.4490154 123.050646,36.7259385 C122.889108,37.0025538 122.807262,37.3071692 122.807877,37.6305538 C122.809108,38.1117846 122.986646,38.5256308 123.335569,38.8600923 C123.682031,39.1927077 124.122954,39.3613231 124.645415,39.3613231 L124.651569,39.3613231 C124.991877,39.3607077 125.299877,39.2930154 125.567262,39.1604 C125.836492,39.0271692 126.053723,38.8367077 126.213415,38.5954769 L126.255569,38.5311692 L125.8048,38.2354769 L125.761108,38.2908615 Z" id="Fill-30"></path>
                <path d="M132.934492,38.7539077 L131.327415,38.7579077 L132.143415,36.8145231 L132.934492,38.7539077 Z M133.544338,38.7523692 L132.306185,35.9006769 L131.989877,35.9012923 L130.760646,38.7594462 L130.345877,38.7603692 L130.348338,39.6923692 L130.908646,39.6905231 L130.907723,39.2631385 L133.405569,39.2572923 L133.4068,39.6671385 L133.958185,39.6652923 L133.955723,38.7511385 L133.544338,38.7523692 Z" id="Fill-32"></path>
                <polygon id="Fill-35" points="136.804092 35.8894154 136.631477 35.8894154 135.099477 39.2531077 135.710554 39.2515692 136.7204 37.0226462 137.749631 39.2463385 138.357938 39.2448 136.8244 35.9340308"></polygon>
                <path d="M141.224462,37.2986769 L141.030615,37.2989846 C140.795538,37.2986769 140.633385,37.2903692 140.555538,37.2722154 C140.488462,37.2571385 140.425385,37.2134462 140.368154,37.1420615 C140.309692,37.0703692 140.281692,36.9796 140.281385,36.8648308 C140.281077,36.7429846 140.303231,36.6466769 140.347538,36.5780615 C140.391846,36.5100615 140.449385,36.4636 140.524462,36.4356 C140.580462,36.4149846 140.713385,36.3897538 141.028154,36.3891385 L141.222308,36.3888308 L141.224462,37.2986769 Z M140.734923,35.8796 C140.437385,35.8802154 140.192769,35.9657538 140.008154,36.1340615 C139.820769,36.3039077 139.726,36.5442154 139.726615,36.8488308 C139.727231,37.0943692 139.810615,37.3032923 139.974615,37.4694462 C140.110615,37.6069846 140.282,37.6986769 140.485692,37.7426769 L139.510308,39.2420615 L140.140154,39.2408308 L141.050923,37.8036 L141.226,37.8032923 L141.229692,39.2380615 L141.795846,39.2362154 L141.787231,35.8768308 L140.734923,35.8796 Z" id="Fill-37"></path>
                <polygon id="Fill-39" points="150.765938 35.8545538 150.038246 35.8564 148.615785 37.1800923 148.6124 35.8597846 148.040092 35.8613231 148.043169 37.1767077 146.654246 35.8853231 146.631785 35.8647077 145.906554 35.8668615 147.482862 37.3702462 145.812092 39.2262462 146.5524 39.2247077 147.898862 37.7022462 148.044708 37.8268615 148.0484 39.2210154 148.620708 39.2194769 148.617323 37.8259385 148.768092 37.6988615 150.133323 39.2157846 150.870554 39.2142462 149.168092 37.3693231"></polygon>
                <polygon id="Fill-41" points="154.934185 35.8446462 152.6948 38.1120308 152.688954 35.8498769 152.1228 35.8511077 152.131415 39.2104923 152.290185 39.2104923 154.512338 36.9646462 154.517877 39.2049538 155.084338 39.2034154 155.075723 35.8434154"></polygon>
                <polygon id="Fill-43" points="158.832031 35.8344308 156.568031 35.8405846 156.569262 36.3507385 157.417877 36.3485846 157.425262 39.1978154 157.991723 39.1962769 157.984338 36.3470462 158.832646 36.3448923"></polygon>
                <polygon id="Fill-45" points="162.582646 35.8260308 160.319262 35.8318769 160.320492 36.3423385 161.169108 36.3401846 161.176185 39.1894154 161.742646 39.1878769 161.735569 36.3383385 162.584185 36.3361846"></polygon>
                <path d="M165.430892,37.2391692 L165.236738,37.2397846 L165.216123,37.2397846 C164.937354,37.2397846 164.8152,37.2256308 164.761969,37.2136308 C164.693969,37.1976308 164.632738,37.1551692 164.574277,37.0828615 C164.516123,37.0111692 164.488123,36.9204 164.487815,36.8059385 C164.487508,36.6837846 164.509662,36.5874769 164.553969,36.5191692 C164.598277,36.4508615 164.655815,36.4044 164.730892,36.3764 C164.786892,36.3557846 164.920431,36.3305538 165.234585,36.3299385 L165.428738,36.3293231 L165.430892,37.2391692 Z M165.993662,35.8176308 L164.941354,35.8204 C164.644123,35.8210154 164.399508,35.9065538 164.214585,36.0745538 C164.026892,36.2450154 163.932123,36.4856308 163.933046,36.7893231 C163.933354,37.0348615 164.016738,37.2437846 164.181046,37.4102462 C164.317046,37.5477846 164.488431,37.6394769 164.692123,37.6834769 L163.716738,39.1828615 L164.346277,39.1813231 L165.257354,37.7444 L165.432431,37.7437846 L165.435815,39.1788615 L166.001969,39.1773231 L165.993662,35.8176308 Z" id="Fill-47"></path>
                <polygon id="Fill-49" points="6.12409231 15.1451385 1.71270769 15.1451385 1.71270769 8.27313846 9.23076923e-05 8.27313846 9.23076923e-05 19.8642154 1.71270769 19.8642154 1.71270769 16.8651385 6.12409231 16.8651385 6.12409231 19.8642154 7.82993846 19.8642154 7.82993846 8.27313846 6.12409231 8.27313846"></polygon>
                <path d="M20.9968308,14.0616 C20.9968308,15.2003692 20.5882154,16.1862154 19.7820615,16.9920615 C18.9759077,17.7939077 17.9922154,18.2003692 16.8580615,18.2003692 C15.7196,18.2003692 14.7334462,17.7939077 13.9276,16.9923692 C13.1260615,16.1865231 12.7196,15.2003692 12.7196,14.0616 C12.7196,12.9271385 13.1260615,11.9437538 13.9272923,11.1379077 C14.7337538,10.3317538 15.7199077,9.92313846 16.8580615,9.92313846 C17.9919077,9.92313846 18.9756,10.3317538 19.7820615,11.1379077 C20.5879077,11.9437538 20.9968308,12.9274462 20.9968308,14.0616 M16.8580615,8.27329231 C15.2645231,8.27329231 13.8845231,8.84283077 12.7559077,9.96652308 C11.6276,11.0994462 11.0556,12.4772923 11.0556,14.0616 C11.0556,15.6557538 11.6279077,17.0357538 12.7559077,18.1637538 C13.8842154,19.2920615 15.2642154,19.8640615 16.8580615,19.8640615 C18.4426769,19.8640615 19.8205231,19.2920615 20.9534462,18.1637538 C22.0771385,17.0354462 22.6466769,15.6554462 22.6466769,14.0616 C22.6466769,12.4776 22.0771385,11.0997538 20.9531385,9.96621538 C19.8202154,8.84283077 18.4423692,8.27329231 16.8580615,8.27329231" id="Fill-51"></path>
                <path d="M30.9801538,16.5435692 C30.9801538,16.9860308 30.8207692,17.3724923 30.5063077,17.6915692 C30.1872308,18.0060308 29.8007692,18.1654154 29.3583077,18.1654154 L27.4007692,18.1654154 L27.4007692,14.9146462 L29.3583077,14.9146462 C29.8010769,14.9146462 30.1875385,15.0743385 30.506,15.3881846 C30.8204615,15.7072615 30.9801538,16.0961846 30.9801538,16.5435692 M29.8986154,12.7417231 C29.5795385,13.0561846 29.186,13.2158769 28.7290769,13.2158769 L27.4007692,13.2158769 L27.4007692,9.97218462 L28.7641538,9.97218462 C29.2069231,9.97218462 29.5933846,10.1315692 29.9121538,10.4460308 C30.2266154,10.7601846 30.386,11.1466462 30.386,11.5940308 C30.386,12.0364923 30.222,12.4223385 29.8986154,12.7417231 M31.238,13.7964923 C31.8001538,13.1780308 32.0847692,12.4374154 32.0847692,11.5940308 C32.0847692,10.6823385 31.7573846,9.89249231 31.1115385,9.24633846 C30.4656923,8.6008 29.6758462,8.27310769 28.7641538,8.27310769 L25.702,8.27310769 L25.702,19.8641846 L29.3583077,19.8641846 C30.2703077,19.8641846 31.0601538,19.5368 31.7056923,18.8909538 C32.3515385,18.2451077 32.6789231,17.4552615 32.6789231,16.5435692 C32.6789231,15.9691077 32.5392308,15.4272615 32.2641538,14.9337231 C32.0127692,14.4758769 31.6678462,14.0937231 31.238,13.7964923" id="Fill-53"></path>
                <polygon id="Fill-55" points="37.4904 8.27313846 35.7984 8.27313846 35.7984 19.9869846 42.5657846 12.5069846 42.5657846 19.8642154 44.2645538 19.8642154 44.2645538 8.15283077 37.4904 15.5143692"></polygon>
                <polygon id="Fill-57" points="53.9079077 3.96483077 52.1928308 7.55129231 56.2519077 3.90390769"></polygon>
                <polygon id="Fill-59" points="49.9151077 15.2953846 49.9151077 8.05384615 48.2231077 8.05384615 48.2231077 19.768 54.9904923 12.2876923 54.9904923 19.6452308 55.2178769 19.6452308 56.6809538 16.8135385 56.6895692 7.93353846"></polygon>
                <polygon id="Fill-1" points="65.2469538 0.0881538462 62.3349538 6.25984615 70.6008 25.1352308 53.4715692 25.1438462 46.8281846 39.4130769 52.8617231 39.4130769 56.9958769 30.3992308 72.8844923 30.3992308 76.7786462 39.4130769 82.9081846 39.4130769"></polygon>
                <polygon id="Fill-2" points="96.3772615 15.2061231 100.583108 15.2061231 100.583108 30.0535077 103.113569 30.0535077 103.113569 15.2061231 107.319415 15.2061231 107.319415 12.6968923 96.3772615 12.6968923"></polygon>
            </g>
        </g>
    </g>
</svg>