<?xml version="1.0" encoding="UTF-8"?>
<svg width="33px" height="40px" viewBox="0 0 33 40" version="1.1" xmlns="http://www.w3.org/2000/svg" xmlns:xlink="http://www.w3.org/1999/xlink">
    <!-- Generator: sketchtool 50.2 (55047) - http://www.bohemiancoding.com/sketch -->
    <title>6C4F7608-7599-49E4-9E54-0EC9F77A3E50</title>
    <desc>Created with sketchtool.</desc>
    <defs></defs>
    <g id="0.Zaglushka" stroke="none" stroke-width="1" fill="none" fill-rule="evenodd">
        <g id="Screen_zaglushka_documents" transform="translate(-384.000000, -272.000000)" fill="#16284A" fill-rule="nonzero">
            <g id="Group" transform="translate(256.000000, 224.000000)">
                <g id="1">
                    <path d="M150.454271,48 L160.565546,58.0758495 L160.565546,83.7427215 C160.565546,86.090924 158.65506,88 156.309512,88 L134.388614,88 C132.041573,88 130.131336,86.091007 130.131336,83.7427215 L130.131336,81.8349729 L129.715522,81.8349729 C128.76816,81.8349729 128,81.0675594 128,80.119534 L128,69.7155634 C128,68.767455 128.768243,67.9999585 129.715522,67.9999585 L130.131336,67.9999585 L130.131336,52.2572785 C130.131336,49.9115649 132.041573,48 134.388614,48 L150.454271,48 Z M132.500528,71.5931132 L132.500528,78.7127198 L134.116659,78.7127198 L134.116659,76.1328828 C134.266989,76.1537067 134.459216,76.1643261 134.673677,76.1643261 C135.6373,76.1643261 136.461045,75.9289582 137.018063,75.4046281 C137.446321,74.9980234 137.681689,74.3977816 137.681689,73.6917611 C137.681689,72.9855747 137.371073,72.3854988 136.910791,72.0219522 C136.428939,71.6361713 135.711801,71.4441105 134.705618,71.4441105 C133.709972,71.4441105 133.003287,71.5081584 132.500528,71.5931132 Z M136.065558,73.7348192 C136.065558,74.4736933 135.530111,74.9116583 134.663224,74.9116583 C134.427192,74.9116583 134.255955,74.9012048 134.116659,74.8698446 L134.116659,72.738509 C134.234302,72.7071488 134.459216,72.6743781 134.79132,72.6743781 C135.604612,72.6743781 136.065558,73.0705295 136.065558,73.7348192 Z M156.309512,85.3927851 C157.218213,85.3927851 157.956921,84.6527495 157.956921,83.7426385 L157.895445,59.1086637 L152.431295,59.1243438 C150.800811,59.1243438 149.478868,57.8011569 149.478868,56.1719172 L149.478868,50.5940237 L134.388614,50.6097868 C133.479913,50.6097868 132.739795,51.3498224 132.739795,52.2572785 L132.739795,67.9999585 L153.174566,67.9999585 C154.12201,67.9999585 154.890171,68.767455 154.890171,69.7155634 L154.890171,80.119534 C154.890171,81.0675594 154.12201,81.8349729 153.174566,81.8349729 L132.739795,81.8349729 L132.739795,83.7427215 C132.739795,84.6527495 133.479831,85.3927851 134.388614,85.3927851 L156.309512,85.3927851 Z M138.723795,78.6800321 C139.1304,78.7335436 139.729812,78.7871381 140.575875,78.7871381 C141.988663,78.7871381 143.145093,78.4876395 143.904791,77.8561203 C144.601105,77.2678253 145.103864,76.3145732 145.103864,74.9338095 C145.103864,73.6590734 144.633212,72.7711967 143.883967,72.2141789 C143.187736,71.6899317 142.299196,71.4441105 140.928969,71.4441105 C140.104476,71.4441105 139.323208,71.497705 138.723795,71.5931132 L138.723795,78.6800321 Z M141.100206,72.6966954 C142.502457,72.6966954 143.380544,73.488998 143.37009,74.98757 C143.37009,76.7108904 142.406468,77.5241829 140.928969,77.5137294 C140.725625,77.5137294 140.50071,77.5137294 140.361414,77.4810418 L140.361414,72.7607433 C140.500627,72.7281386 140.735995,72.6966954 141.100206,72.6966954 Z M150.407314,74.4841467 L147.81636,74.4841467 L147.81636,72.8352446 L150.589004,72.8352446 L150.589004,71.497705 L146.178658,71.497705 L146.178658,78.7127198 L147.81636,78.7127198 L147.81636,75.8112329 L150.407314,75.8112329 L150.407314,74.4841467 Z" id="pdf_svg"></path>
                </g>
            </g>
        </g>
    </g>
</svg>