<?xml version="1.0" encoding="UTF-8"?>
<svg width="20px" height="14px" viewBox="0 0 20 14" version="1.1" xmlns="http://www.w3.org/2000/svg" xmlns:xlink="http://www.w3.org/1999/xlink">
    <!-- Generator: Sketch 51.3 (57544) - http://www.bohemiancoding.com/sketch -->
    <title>youtube</title>
    <desc>Created with Sketch.</desc>
    <defs></defs>
    <g id="0.Zaglushka" stroke="none" stroke-width="1" fill="none" fill-rule="evenodd">
        <g id="Screen_zaglushka" transform="translate(-240.000000, -754.000000)" fill="#16284A" fill-rule="nonzero">
            <g id="Group-7" transform="translate(200.000000, 752.000000)">
                <path d="M59.1177269,3.20180046 C58.3996498,2.34819358 57.0738704,2 54.5419268,2 L45.3509896,2 C42.7610993,2 41.4128599,2.37065354 40.6974781,3.27944776 C40,4.16552533 40,5.47109082 40,7.27802682 L40,10.7220373 C40,14.222647 40.8275533,16 45.3509896,16 L54.541991,16 C56.7376768,16 57.954365,15.6927477 58.7414904,14.9394406 C59.5487014,14.1669463 59.8931089,12.905659 59.8931089,10.7220373 L59.8931089,7.27802682 C59.8931089,5.3724595 59.8391408,4.05919346 59.1177269,3.20180046 Z M52.7714401,9.47550947 L48.5978658,11.6567568 C48.5045607,11.705527 48.4025283,11.7297196 48.3006243,11.7297196 C48.1852443,11.7297196 48.0701209,11.6986607 47.9681527,11.6369278 C47.7761521,11.5205852 47.6589111,11.3124777 47.6589111,11.0880064 L47.6589111,6.73950111 C47.6589111,6.51541487 47.7758312,6.30749979 47.9674468,6.19109302 C48.1591265,6.07468625 48.397523,6.066729 48.5963899,6.17004483 L52.7699642,8.33723862 C52.9823071,8.44748494 53.1156551,8.66669417 53.1159759,8.90586067 C53.1162326,9.1452197 52.9834621,9.36474978 52.7714401,9.47550947 Z" id="youtube"></path>
            </g>
        </g>
    </g>
</svg>